<?xml version="1.0" standalone="no"?>
<!DOCTYPE svg PUBLIC "-//W3C//DTD SVG 20010904//EN"
 "http://www.w3.org/TR/2001/REC-SVG-20010904/DTD/svg10.dtd">
<svg version="1.0" xmlns="http://www.w3.org/2000/svg"
 width="256.000000pt" height="126.000000pt" viewBox="0 0 256.000000 126.000000"
 preserveAspectRatio="xMidYMid meet">
<metadata>
Created by potrace 1.16, written by Peter Selinger 2001-2019
</metadata>
<g transform="translate(0.000000,126.000000) scale(0.100000,-0.100000)"
fill="#000000" stroke="none">
<path d="M855 932 c-39 -8 -33 -17 10 -17 27 0 39 3 32 8 -8 6 -8 7 3 4 8 -2
15 -8 15 -13 0 -5 4 -15 8 -21 11 -17 -1 -16 -19 1 -9 9 -29 13 -56 11 -36 -2
-49 -10 -86 -51 -45 -49 -156 -264 -154 -296 0 -10 -4 -21 -10 -24 -7 -5 -8
-2 -3 7 4 8 -11 -4 -34 -26 -22 -21 -41 -44 -41 -50 1 -5 16 8 35 30 19 22 35
35 35 30 0 -21 -107 -117 -126 -113 -12 2 -18 -2 -16 -10 2 -10 -4 -12 -20 -7
-18 5 -20 4 -8 -4 50 -35 132 24 207 149 26 44 49 77 51 75 8 -8 -95 -172
-130 -207 -32 -32 -45 -38 -80 -38 -39 0 -47 5 -108 67 -36 37 -69 68 -74 68
-4 0 -26 20 -48 45 -30 35 -38 51 -34 72 3 15 1 30 -4 33 -6 4 -10 -18 -10
-55 0 -58 3 -65 46 -121 26 -32 50 -59 53 -59 3 0 17 -10 31 -21 23 -18 23
-19 3 -9 -36 17 -28 -5 20 -55 42 -43 67 -56 67 -35 0 6 -9 10 -19 10 -11 0
-22 4 -26 9 -3 6 9 8 30 4 23 -4 44 0 62 11 27 17 27 16 -2 -8 -16 -14 -24
-26 -17 -26 22 0 69 28 76 45 3 9 10 14 15 11 13 -8 54 43 95 117 53 95 127
259 113 251 -6 -4 0 5 16 21 15 15 25 30 23 33 -7 6 -66 -44 -60 -52 2 -3 1
-4 -3 -1 -3 3 -12 -3 -20 -13 -8 -9 -2 7 13 36 31 60 94 132 115 132 11 0 11
-2 -1 -11 -12 -8 -11 -9 5 -6 11 2 19 9 18 15 -2 7 7 12 18 12 19 0 18 -4 -15
-40 -20 -22 -36 -42 -36 -45 0 -6 51 16 65 27 15 13 67 10 59 -4 -5 -8 -2 -9
10 -5 11 4 15 3 10 -4 -3 -6 6 -23 21 -39 15 -15 27 -32 26 -37 -1 -4 4 -8 11
-8 6 0 13 -6 16 -14 3 -9 0 -11 -9 -6 -8 5 -11 4 -6 -1 5 -5 14 -9 19 -9 6 0
13 -6 16 -14 3 -9 0 -11 -8 -6 -9 6 -9 3 -1 -14 14 -25 23 -28 14 -3 -8 24 8
7 41 -43 25 -39 26 -39 26 -12 0 15 -4 27 -8 27 -4 0 -15 12 -24 28 -9 15 -35
50 -58 77 -24 29 -13 20 24 -20 66 -69 92 -80 36 -15 -16 19 -29 41 -30 48 0
7 -4 11 -9 8 -4 -3 -16 3 -26 14 -11 12 -13 20 -6 20 9 0 9 5 1 20 -6 11 -7
20 -3 20 4 0 -3 7 -15 16 -12 8 -22 21 -22 28 0 7 -11 22 -23 35 -23 21 -46
24 -102 13z m141 -104 c15 -30 15 -31 -10 -22 -9 3 -14 10 -11 14 6 10 -48 33
-80 33 -14 0 -22 4 -19 9 4 6 24 7 46 4 30 -5 38 -4 32 6 -5 9 -2 8 10 -1 9
-8 24 -27 32 -43z m-296 -178 c-6 -11 -13 -20 -16 -20 -2 0 0 9 6 20 6 11 13
20 16 20 2 0 0 -9 -6 -20z m-60 -59 c-5 -11 -15 -23 -21 -27 -6 -3 -3 5 6 20
20 30 30 35 15 7z m-327 -146 c9 0 17 -4 16 -9 0 -4 8 -14 18 -22 10 -7 13
-14 7 -14 -17 0 -92 69 -124 115 -47 69 -35 64 18 -6 26 -35 55 -64 65 -64z
m77 -65 c0 -5 -10 -10 -22 -9 -22 0 -22 1 -3 9 11 5 21 9 23 9 1 1 2 -3 2 -9z
m-27 -35 c41 12 71 15 62 7 -16 -16 -78 -19 -81 -4 -1 7 0 8 2 3 3 -6 11 -8
17 -6z"/>
<path d="M767 817 c-47 -58 -56 -77 -20 -44 16 15 31 26 34 23 2 -2 14 9 26
24 19 23 20 29 8 34 -9 3 -27 -10 -48 -37z"/>
<path d="M210 625 c0 -10 73 -115 77 -111 3 2 -12 29 -33 60 -34 52 -44 63
-44 51z"/>
<path d="M1106 567 c3 -10 9 -15 12 -12 3 3 0 11 -7 18 -10 9 -11 8 -5 -6z"/>
<path d="M484 439 c-19 -22 -19 -22 3 -10 24 12 39 31 25 31 -5 0 -17 -10 -28
-21z"/>
</g>
</svg>
